<?xml version="1.0" encoding="utf-8"?>
<svg width="26px" height="26px" viewBox="0 0 26 26" version="1.1" xmlns:xlink="http://www.w3.org/1999/xlink" xmlns="http://www.w3.org/2000/svg">
  <path d="M12 1C12 0.447639 12.4476 0 13 0C13.5524 0 14 0.447639 14 1L14 4C14 4.55236 13.5524 5 13 5C12.4476 5 12 4.55236 12 4L12 1ZM7.34314 5.92893C7.7337 6.31951 7.7337 6.95257 7.34314 7.34315C6.95258 7.73372 6.31952 7.73372 5.92896 7.34315L3.80762 5.22182C3.41705 4.83125 3.41705 4.19819 3.80762 3.80761C4.19818 3.41704 4.83124 3.41704 5.2218 3.80761L7.34314 5.92893ZM20.7782 3.80761C21.1688 3.41704 21.8018 3.41704 22.1924 3.80761C22.5829 4.19819 22.5829 4.83125 22.1924 5.22182L20.071 7.34315C19.6805 7.73373 19.0474 7.73372 18.6569 7.34315C18.2663 6.95257 18.2663 6.31951 18.6569 5.92893L20.7782 3.80761ZM13 18C10.2386 18 8 15.7614 8 13C8 10.2386 10.2386 8 13 8C15.7614 8 18 10.2386 18 13C18 15.7614 15.7614 18 13 18ZM4 12C4.55237 12 5 12.4476 5 13C5 13.5524 4.55237 14 4 14L1 14C0.447632 14 0 13.5524 0 13C0 12.4476 0.447632 12 1 12L4 12ZM25 12C25.5524 12 26 12.4476 26 13C26 13.5524 25.5524 14 25 14L22 14C21.4476 14 21 13.5524 21 13C21 12.4476 21.4476 12 22 12L25 12ZM5.92896 18.6569C6.31952 18.2663 6.95258 18.2663 7.34314 18.6569C7.7337 19.0474 7.7337 19.6805 7.34314 20.0711L5.2218 22.1924C4.83124 22.583 4.19818 22.583 3.80762 22.1924C3.41705 21.8018 3.41705 21.1687 3.80762 20.7782L5.92896 18.6569ZM22.1924 20.7782C22.5829 21.1687 22.5829 21.8018 22.1924 22.1924C21.8018 22.583 21.1688 22.583 20.7782 22.1924L18.6569 20.0711C18.2663 19.6805 18.2663 19.0474 18.6569 18.6569C19.0474 18.2663 19.6805 18.2663 20.071 18.6569L22.1924 20.7782ZM12 22C12 21.4476 12.4476 21 13 21C13.5524 21 14 21.4476 14 22L14 25C14 25.5524 13.5524 26 13 26C12.4476 26 12 25.5524 12 25L12 22Z" id="Combined-Shape" fill="#FFFFFF" fill-rule="evenodd" stroke="none" />
</svg>